<?xml version="1.0" encoding="utf-8"?>
<!-- Generator: Adobe Illustrator 17.0.0, SVG Export Plug-In . SVG Version: 6.00 Build 0)  -->
<!DOCTYPE svg PUBLIC "-//W3C//DTD SVG 1.1//EN" "http://www.w3.org/Graphics/SVG/1.1/DTD/svg11.dtd">
<svg version="1.1" id="Capa_1" xmlns="http://www.w3.org/2000/svg" xmlns:xlink="http://www.w3.org/1999/xlink" x="0px" y="0px"
	 width="16px" height="16px" viewBox="0 0 16 16" enable-background="new 0 0 16 16" xml:space="preserve">
<linearGradient id="SVGID_1_" gradientUnits="userSpaceOnUse" x1="2.471916e-007" y1="8" x2="16" y2="8">
	<stop  offset="0" style="stop-color:#712730"/>
	<stop  offset="0.1985" style="stop-color:#742931"/>
	<stop  offset="0.3845" style="stop-color:#7E2E33"/>
	<stop  offset="0.5654" style="stop-color:#8D3836"/>
	<stop  offset="0.7434" style="stop-color:#A44739"/>
	<stop  offset="0.9174" style="stop-color:#C35C39"/>
	<stop  offset="1" style="stop-color:#D66837"/>
</linearGradient>
<path fill="url(#SVGID_1_)" d="M15.995,15.743c-0.022-0.089-0.081-0.16-0.16-0.192c-1.662-0.722-3.349-2.715-3.375-2.734l0,0
	c-0.209-0.22-0.397-0.437-0.572-0.654c0.124-0.09,0.245-0.186,0.363-0.282c0.618-0.519,1.132-1.173,1.51-1.92
	c-0.001-0.009-0.001-0.019,0-0.028c0.147,0.064,0.303,0.096,0.461,0.096c0.697-0.01,1.254-0.637,1.245-1.4
	c-0.009-0.708-0.505-1.294-1.15-1.357c-0.034-0.776-0.229-1.534-0.569-2.216c-0.348-0.689-0.813-1.3-1.37-1.799
	c0.317-0.437,0.551-0.75,0.6-0.809l0.015-0.017c1.713-2.148,1.644-2.255,1.546-2.371c-0.033-0.045-0.108-0.104-0.258,0
	c-0.042,0.026-0.079,0.062-0.108,0.104c-0.693,0.969-1.456,1.877-2.28,2.715c-0.529-0.39-1.104-0.697-1.71-0.913L10.018,1.91
	c0.01-0.081,0.016-0.163,0.015-0.245C10.049,0.762,9.392,0.017,8.567,0C7.741-0.016,7.06,0.703,7.045,1.606
	C6.551,1.661,6.063,1.768,5.587,1.927C5.121,2.084,4.671,2.293,4.245,2.553C3.019,1.555,2.05,0.718,1.896,0.58
	C1.86,0.549,1.817,0.529,1.772,0.52c-0.121-0.023-0.198,0-0.234,0.099c-0.062,0.149,0.077,0.282,0.258,0.42L1.86,1.098l1.873,1.784
	C3.66,2.936,3.591,2.993,3.521,3.049C2.889,3.57,2.362,4.23,1.976,4.986L1.963,5.011C1.84,4.977,1.714,4.96,1.587,4.96
	C0.759,4.908,0.05,5.6,0.003,6.505c-0.048,0.905,0.584,1.682,1.412,1.734l0,0c0.085,0.619,0.27,1.217,0.546,1.765
	c0.237,0.469,0.531,0.9,0.873,1.283c-0.951,0.846-1.177,1.164-1.221,1.24c-1.309,1.5-1.239,1.677-1.193,1.796
	c0.03,0.075,0.098,0.122,0.173,0.118c0.09,0,0.174-0.048,0.224-0.13c0.655-1.02,1.457-1.917,2.375-2.656
	c0.103,0.099,0.209,0.195,0.317,0.282c0.629,0.515,1.335,0.906,2.087,1.156c0.408,0.134,0.826,0.228,1.249,0.282
	c0.151,0.639,0.747,1.023,1.331,0.858c0.392-0.111,0.696-0.45,0.789-0.881c0.415-0.065,0.825-0.17,1.224-0.313
	c0.434-0.154,0.854-0.355,1.252-0.6c1.971,2.295,2.834,2.819,2.877,2.842C15.276,15.867,15.636,16,15.799,16
	c0.048,0.002,0.095-0.016,0.131-0.051C15.987,15.9,16.012,15.82,15.995,15.743z M9.271,0.743c0.228-0.002,0.413,0.199,0.415,0.448
	c0.001,0.249-0.182,0.452-0.41,0.454S8.863,1.446,8.862,1.197c0-0.002,0-0.004,0-0.006C8.863,0.944,9.045,0.745,9.271,0.743z
	 M5.703,2.268c0.448-0.161,0.91-0.272,1.378-0.333c0.146,0.889,0.923,1.48,1.735,1.32C9.348,3.151,9.787,2.74,9.964,2.181l0,0
	l0.149,0.048c0.569,0.189,1.112,0.464,1.613,0.815c-0.75,0.761-1.319,1.266-1.332,1.277C9.106,5.519,7.818,5.192,7.329,4.853
	L7.187,4.757C6.971,4.611,6.468,4.267,6.414,4.23C5.796,3.762,5.165,3.266,4.58,2.795C4.938,2.581,5.314,2.405,5.703,2.268
	L5.703,2.268z M3.148,11.007c-0.327-0.365-0.605-0.779-0.827-1.229C2.076,9.29,1.91,8.759,1.832,8.208
	C2.646,8.052,3.19,7.204,3.048,6.312C2.972,5.838,2.709,5.423,2.329,5.18c0.356-0.699,0.839-1.311,1.419-1.799
	c0.088-0.073,0.175-0.144,0.258-0.214l0.567,0.564c0.591,0.628,1.101,1.341,1.515,2.12c0.177,0.357,0.238,0.769,0.175,1.17
	c-0.27,1.641-1.819,2.929-1.832,2.94c-0.51,0.412-0.938,0.761-1.283,1.057L3.148,11.007z M10.103,12.761
	c-0.365,0.127-0.739,0.221-1.118,0.282c-0.074-0.654-0.619-1.117-1.216-1.036c-0.491,0.067-0.879,0.488-0.945,1.025
	c-0.378-0.061-0.751-0.155-1.115-0.282c-0.707-0.249-1.368-0.63-1.955-1.128l-0.234-0.206c0.379-0.3,0.774-0.575,1.182-0.823
	c3.21-1.759,5.502,0.429,5.755,0.682l0.036,0.042c0.278,0.344,0.536,0.66,0.773,0.947c-0.368,0.208-0.754,0.378-1.151,0.507
	L10.103,12.761z M9.992,7.968c0,0,0-0.017,0-0.031C9.951,7.601,9.974,7.26,10.059,6.934c0.173-0.651,1.365-2.385,2.174-3.507
	c0.539,0.47,0.99,1.05,1.327,1.708c0.326,0.647,0.515,1.367,0.551,2.106c-0.693,0.062-1.209,0.728-1.152,1.487
	c0.033,0.443,0.26,0.842,0.609,1.07v0.02c-0.366,0.715-0.866,1.339-1.466,1.83c-0.121,0.101-0.258,0.197-0.376,0.282
	c-1.587-2.038-1.718-3.854-1.723-3.938L9.992,7.968z"/>
</svg>
