<?xml version="1.0" encoding="utf-8"?>
<!-- Generator: Adobe Illustrator 17.0.0, SVG Export Plug-In . SVG Version: 6.00 Build 0)  -->
<!DOCTYPE svg PUBLIC "-//W3C//DTD SVG 1.1//EN" "http://www.w3.org/Graphics/SVG/1.1/DTD/svg11.dtd">
<svg version="1.1" id="Capa_1" xmlns="http://www.w3.org/2000/svg" xmlns:xlink="http://www.w3.org/1999/xlink" x="0px" y="0px"
	 width="678.728px" height="663.777px" viewBox="0 0 678.728 663.777" enable-background="new 0 0 678.728 663.777"
	 xml:space="preserve">
<g>
	<path fill="#BDBCBC" d="M224.896,230.82l0.094-3.944l-6.07-0.947c-0.346-2.172-1.145-4.198-2.309-5.97l3.855-4.785l-2.723-2.855
		l-4.963,3.623c-1.716-1.247-3.7-2.14-5.854-2.589l-0.658-6.109l-3.944-0.094l-0.947,6.071c-2.172,0.346-4.197,1.144-5.97,2.308
		l-4.785-3.854l-2.856,2.722l3.624,4.962c-1.247,1.716-2.141,3.7-2.59,5.854l-6.109,0.658l-0.094,3.945l6.071,0.947
		c0.346,2.172,1.145,4.197,2.309,5.97l-3.856,4.785l2.723,2.855l4.963-3.623c1.716,1.247,3.7,2.14,5.854,2.589l0.658,6.109
		l3.944,0.094l0.947-6.071c2.172-0.346,4.197-1.144,5.97-2.308l4.785,3.854l2.855-2.722l-3.624-4.962
		c1.247-1.716,2.141-3.7,2.59-5.853L224.896,230.82z M215.834,228.631c-0.158,6.638-5.687,11.911-12.325,11.753
		c-6.639-0.158-11.911-5.687-11.753-12.325c0.158-6.638,5.687-11.911,12.326-11.753
		C210.719,216.464,215.992,221.993,215.834,228.631z"/>
	<g>
		<path fill="#FAB832" d="M247.524,252.049l0.071-3.006l-5.014-0.782c-0.258-1.517-0.816-2.936-1.619-4.187l3.184-3.952
			l-2.075-2.176l-4.099,2.992c-1.211-0.861-2.602-1.486-4.105-1.816l-0.544-5.046l-3.006-0.072l-0.783,5.014
			c-1.517,0.258-2.935,0.817-4.187,1.619l-3.952-3.183l-2.177,2.075l2.993,4.098c-0.861,1.212-1.485,2.603-1.815,4.105l-5.047,0.543
			l-0.072,3.007l5.015,0.782c0.259,1.516,0.816,2.935,1.618,4.186l-3.184,3.952l2.076,2.177l4.099-2.993
			c1.211,0.861,2.602,1.485,4.105,1.815l0.544,5.046l3.006,0.072l0.782-5.014c1.517-0.258,2.935-0.816,4.187-1.618l3.952,3.184
			l2.176-2.076l-2.992-4.098c0.861-1.212,1.485-2.603,1.816-4.105L247.524,252.049z M231.211,259.718
			c-5.268-0.125-9.451-4.513-9.326-9.782c0.125-5.268,4.512-9.452,9.78-9.327c5.268,0.125,9.452,4.514,9.327,9.781
			C240.867,255.658,236.479,259.843,231.211,259.718z"/>
		<g>
			<path fill="#FAB832" d="M231.248,258.143c-4.4-0.105-7.895-3.77-7.791-8.17c0.105-4.4,3.77-7.895,8.17-7.791
				c4.4,0.105,7.895,3.77,7.79,8.17C239.313,254.753,235.648,258.248,231.248,258.143z M231.596,243.497
				c-3.676-0.087-6.738,2.832-6.825,6.507c-0.087,3.676,2.832,6.738,6.508,6.825c3.675,0.087,6.737-2.832,6.825-6.508
				C238.191,246.646,235.271,243.585,231.596,243.497z"/>
		</g>
	</g>
	<g>
		<path fill="#BDBCBC" d="M203.551,238.609c-5.659-0.134-10.154-4.848-10.02-10.508c0.135-5.659,4.849-10.153,10.508-10.019
			c5.659,0.134,10.154,4.848,10.019,10.507C213.923,234.249,209.21,238.743,203.551,238.609z M204.007,219.396
			c-4.935-0.117-9.045,3.801-9.162,8.736c-0.117,4.935,3.802,9.045,8.737,9.163c4.934,0.117,9.044-3.802,9.162-8.737
			C212.861,223.623,208.942,219.513,204.007,219.396z"/>
	</g>
	<g>
		<path fill="#FAB832" d="M8.104,213.382l8.646,0.673l-0.445,5.725l-8.647-0.673l-0.913,11.739l10.878,0.847l-0.447,5.725L0,236.081
			l3.12-40.081l17.176,1.337l-0.445,5.727l-10.878-0.847L8.104,213.382z"/>
		<path fill="#FAB832" d="M40.821,221.515l-0.348,4.468l-18.666-1.454l0.348-4.466L40.821,221.515z M41.542,212.24l-0.346,4.468
			l-18.666-1.454l0.346-4.466L41.542,212.24z"/>
		<path fill="#FAB832" d="M57.985,228.9l6.508-28.123l8.761,0.682l-3.12,40.081l-5.954-0.463l2.238-28.744l-6.59,28.405
			l-5.956-0.463l-2.487-28.708l-2.206,28.342l-5.5-0.427l3.12-40.081l8.761,0.682L57.985,228.9z"/>
		<path fill="#FAB832" d="M94.139,228.376l-0.415,5.324c-0.499,6.412-3.992,9.826-10.173,9.346
			c-6.185-0.481-9.107-4.396-8.608-10.809l1.623-20.842c0.499-6.412,3.992-9.828,10.177-9.345c6.181,0.481,9.103,4.394,8.604,10.806
			l-0.303,3.895l-5.956-0.463l0.336-4.295c0.222-2.863-0.952-4.05-2.955-4.206c-2.005-0.154-3.348,0.835-3.57,3.698l-1.686,21.644
			c-0.223,2.863,0.955,3.992,2.96,4.146c2.002,0.156,3.342-0.775,3.565-3.638l0.445-5.727L94.139,228.376z"/>
		<path fill="#FAB832" d="M106.055,201.824c-1.259-0.097-2.113,0.526-2.254,2.358l-0.21,2.693l-3.78-0.294l0.192-2.461
			c0.316-4.066,2.498-6.2,6.447-5.893c3.951,0.309,5.778,2.755,5.463,6.819c-0.652,8.361-9.586,10.66-9.132,15.189l7.556,0.589
			l-0.28,3.607l-11.566-0.901l0.241-3.092c0.58-7.444,8.588-8.201,9.164-15.589C108.068,202.615,107.316,201.923,106.055,201.824z"
			/>
	</g>
	<g>
		<path fill="#F6F6F6" d="M84.318,390.838l1.259,3.912c1.515,4.711,0.026,8.16-4.518,9.622c-4.541,1.461-7.763-0.473-9.278-5.184
			l-4.926-15.311c-1.516-4.711-0.026-8.16,4.515-9.621c4.544-1.462,7.765,0.472,9.281,5.183l0.92,2.861l-4.374,1.407l-1.015-3.156
			c-0.676-2.103-1.859-2.603-3.33-2.13c-1.474,0.474-2.14,1.57-1.464,3.672l5.116,15.901c0.676,2.102,1.844,2.562,3.317,2.088
			c1.471-0.473,2.154-1.528,1.477-3.63l-1.354-4.207L84.318,390.838z"/>
		<path fill="#F6F6F6" d="M85.048,368.465c-0.926,0.298-1.351,0.99-0.918,2.336l0.636,1.977l-2.778,0.894l-0.582-1.808
			c-0.961-2.987-0.029-5.143,2.872-6.076c2.903-0.934,4.916,0.275,5.877,3.262c1.976,6.14-3.714,10.383-2.069,13.475l5.551-1.786
			l0.853,2.65l-8.496,2.733l-0.731-2.272c-1.759-5.467,3.72-8.344,1.975-13.77C86.71,368.44,85.974,368.167,85.048,368.465z"/>
		<path fill="#F6F6F6" d="M105.456,378.097l5.634-1.813l1.056,3.281l-5.634,1.813l1.854,5.762l-3.281,1.056l-1.854-5.762
			l-5.637,1.814l-1.056-3.281l5.637-1.813l-1.827-5.679l3.281-1.056L105.456,378.097z"/>
		<path fill="#F6F6F6" d="M134.054,386.952l-4.667,1.501l-2.519-5.085l-5.678,1.827l0.92,5.599l-4.249,1.367l-4.762-30.959
			l6.771-2.178L134.054,386.952z M120.493,381.01l4.458-1.434l-7.018-14.172L120.493,381.01z"/>
		<path fill="#F6F6F6" d="M130.582,353.816c-0.926,0.298-1.351,0.99-0.918,2.336l0.636,1.977l-2.778,0.894l-0.582-1.808
			c-0.961-2.987-0.029-5.143,2.872-6.076c2.903-0.934,4.916,0.275,5.876,3.262c1.975,6.14-3.715,10.383-2.07,13.475l5.551-1.786
			l0.853,2.65l-8.496,2.733l-0.731-2.272c-1.759-5.467,3.72-8.344,1.975-13.77C132.244,353.791,131.508,353.518,130.582,353.816z"/>
		<path fill="#F6F6F6" d="M155.108,358.363l1.056,3.281l-13.712,4.412l-1.056-3.281L155.108,358.363z M157.3,365.177l1.056,3.281
			l-13.712,4.412l-1.056-3.281L157.3,365.177z"/>
		<path fill="#F6F6F6" d="M171.158,349.996l0.339,1.053c0.974,3.028,0.67,5.259-1.079,6.89c2.794,0.169,4.477,2.088,5.478,5.2
			l0.771,2.397c1.462,4.544-0.151,7.754-4.776,9.242l-7.277,2.341l-9.473-29.444l6.983-2.246
			C166.919,343.888,169.697,345.455,171.158,349.996z M161.123,350.395l2.503,7.781l1.808-0.582
			c1.724-0.555,2.532-1.649,1.774-4.005l-0.528-1.641c-0.676-2.103-1.689-2.798-3.33-2.271L161.123,350.395z M164.979,362.381
			l2.91,9.044l2.65-0.853c1.555-0.5,2.167-1.486,1.464-3.672l-0.826-2.567c-0.879-2.733-2.035-3.292-4.137-2.615L164.979,362.381z"
			/>
		<path fill="#F6F6F6" d="M176.073,339.181c-0.926,0.298-1.353,0.991-0.92,2.337l0.636,1.977l-2.775,0.893l-0.582-1.808
			c-0.961-2.987-0.029-5.143,2.872-6.076c2.903-0.934,4.916,0.275,5.876,3.262c1.976,6.14-3.715,10.383-2.07,13.475l5.553-1.786
			l0.853,2.65l-8.498,2.734l-0.731-2.272c-1.759-5.467,3.722-8.345,1.977-13.77C177.737,339.155,176.999,338.883,176.073,339.181z"
			/>
	</g>
	<g>
		<circle fill="none" stroke="#FFFFFF" stroke-width="0.9111" stroke-miterlimit="10" cx="65.275" cy="261.908" r="8.868"/>
		<circle fill="#FFFFFF" cx="65.275" cy="261.908" r="4.234"/>
	</g>
	<g>
		<g>
			
				<line fill="none" stroke="#FFFFFF" stroke-width="1.3666" stroke-linecap="round" stroke-miterlimit="10" x1="65.007" y1="273.214" x2="64.963" y2="275.035"/>
			
				<line fill="none" stroke="#FFFFFF" stroke-width="1.3666" stroke-linecap="round" stroke-miterlimit="10" stroke-dasharray="3.4169,3.4169" x1="64.882" y1="278.451" x2="64.273" y2="304.071"/>
			<polyline fill="none" stroke="#FFFFFF" stroke-width="1.3666" stroke-linecap="round" stroke-miterlimit="10" points="
				64.232,305.779 64.189,307.601 65.446,308.919 			"/>
			
				<line fill="none" stroke="#FFFFFF" stroke-width="1.3666" stroke-linecap="round" stroke-miterlimit="10" stroke-dasharray="3.5988,3.5988" x1="67.93" y1="311.524" x2="91.524" y2="336.267"/>
			
				<line fill="none" stroke="#FFFFFF" stroke-width="1.3666" stroke-linecap="round" stroke-miterlimit="10" x1="92.766" y1="337.569" x2="94.023" y2="338.888"/>
		</g>
	</g>
	<circle fill="#FFFFFF" cx="98.303" cy="343.259" r="3.244"/>
	<circle fill="#F6F6F6" cx="145.476" cy="389.44" r="3.244"/>
	<g>
		<g>
			<path fill="#12263D" d="M157.67,453.234c-0.962,0.963-1.841,1.664-2.307,1.995l0.025-0.014l0.005,0.004
				c-0.528,0.253-1.539,0.682-2.812,1.066c-16.955,3.467-29.844,15.83-29.844,15.83s0.924,1.228,2.507,3.135
				c3.011-1.332,5.068,2.086,5.068,2.086s3.538,4.569,6.319,6.474c4.368,2.997,12.126-0.645,12.126-0.645
				c5.134-2.168,7.991-6.257,8.659-9.052c0.771-3.195,0.436-5.065-0.893-9.397c-1.066-3.464,0.505-4.962,1.284-5.486
				c0-0.002,0-0.005,0-0.005c0.839-0.441,2.893-1.091,5.428,1.473c3.184,3.224,4.67,4.404,7.851,5.243
				c2.78,0.729,7.728,0.152,12.074-3.343c0,0,6.878-5.106,6.31-10.371c-0.36-3.354-2.707-8.636-2.707-8.636
				s-2.036-3.429,0.564-5.448c-0.934-2.299-1.573-3.694-1.573-3.694S168.757,439.94,157.67,453.234z M155.251,468.47
				c0,0,0.635,3.364-0.769,6.367c-1.738,3.732-7.991,7.126-12.438,7.788c-4.445,0.663-7.437-2.718-10.82-8.216
				c-2.786-4.535,3.701-8.13,3.701-8.13s5.857-3.94,12.662-5.821C153.419,458.848,155.251,468.47,155.251,468.47z M185.865,456.431
				c-2.691,3.601-8.641,7.5-12.756,7.266c-3.31-0.189-5.969-2.344-5.969-2.344s-7.602-6.17-3.427-10.538
				c4.882-5.105,11.125-8.397,11.125-8.397s6.242-4.01,8.909,0.596C186.994,448.592,188.553,452.828,185.865,456.431z"/>
			<path fill="#FAB832" d="M154.482,474.837c1.405-3.003,0.769-6.367,0.769-6.367s-1.833-9.622-7.665-8.012
				c-6.805,1.881-12.662,5.821-12.662,5.821s-6.487,3.595-3.701,8.13c3.383,5.497,6.375,8.879,10.82,8.216
				C146.491,481.963,152.744,478.569,154.482,474.837z"/>
			<path fill="#FAB832" d="M174.838,442.418c0,0-6.244,3.291-11.125,8.397c-4.176,4.369,3.427,10.538,3.427,10.538
				s2.659,2.155,5.969,2.344c4.115,0.234,10.065-3.665,12.756-7.266c2.689-3.603,1.129-7.84-2.118-13.417
				C181.079,438.408,174.838,442.418,174.838,442.418z"/>
		</g>
	</g>
</g>
<g>
	
		<polyline fill="none" stroke="#F6F6F6" stroke-width="2.2537" stroke-linecap="round" stroke-miterlimit="10" stroke-dasharray="6.0098" points="
		652.212,388.401 665.901,240.762 636.657,199.783 	"/>
	<circle fill="#FFFFFF" cx="629.768" cy="191.171" r="5.35"/>
	<g>
		<polygon fill="#FAB832" points="615.759,126.563 521.688,150.006 517.716,193.299 639.58,162.93 		"/>
		
			<rect x="577.284" y="117.065" transform="matrix(-0.2419 -0.9703 0.9703 -0.2419 544.65 785.2542)" fill="#F4952B" width="3.598" height="125.591"/>
		<g>
			<polygon fill="#1B3B60" points="598.834,137.108 604.721,135.641 603.759,133.834 597.967,135.274 			"/>
			<polygon fill="#1B3B60" points="605.858,135.358 611.727,133.895 610.672,132.11 604.893,133.55 			"/>
			<polygon fill="#1B3B60" points="584.792,140.609 590.698,139.137 589.928,137.278 584.12,138.727 			"/>
			<polygon fill="#1B3B60" points="591.813,138.858 597.708,137.391 596.843,135.556 591.041,137.003 			"/>
			<polygon fill="#1B3B60" points="611.613,148.612 605.037,150.251 607.398,155.253 614.235,153.548 			"/>
			<polygon fill="#1B3B60" points="606.404,136.394 609.026,141.327 615.218,139.786 612.332,134.917 			"/>
			<polygon fill="#1B3B60" points="617.405,159.518 614.782,154.583 607.894,156.3 610.252,161.299 			"/>
			<polygon fill="#1B3B60" points="625.686,157.454 622.801,152.584 615.921,154.299 618.543,159.234 			"/>
			<polygon fill="#1B3B60" points="535.694,166.362 542.213,164.739 541.95,159.216 535.692,160.774 			"/>
			<polygon fill="#1B3B60" points="535.693,159.601 541.896,158.056 541.633,152.535 535.693,154.015 			"/>
			<polygon fill="#1B3B60" points="577.774,142.358 583.686,140.883 583.014,139.001 577.198,140.452 			"/>
			<polygon fill="#1B3B60" points="528.05,168.267 534.557,166.647 534.556,161.059 528.314,162.615 			"/>
			<polygon fill="#1B3B60" points="543.338,164.457 549.871,162.829 549.348,157.372 543.079,158.935 			"/>
			<polygon fill="#1B3B60" points="527.735,175.106 534.559,173.405 534.559,167.814 527.995,169.45 			"/>
			<polygon fill="#1B3B60" points="550.982,162.554 557.524,160.924 556.737,155.532 550.459,157.095 			"/>
			<polygon fill="#1B3B60" points="570.757,144.105 576.676,142.63 576.097,140.727 570.279,142.175 			"/>
			<polygon fill="#1B3B60" points="543.02,157.778 549.237,156.227 548.712,150.772 542.761,152.255 			"/>
			<polygon fill="#1B3B60" points="555.784,149.007 549.827,150.492 550.35,155.951 556.572,154.401 			"/>
			<polygon fill="#1B3B60" points="571.034,145.207 572.344,150.471 578.572,148.917 576.998,143.721 			"/>
			<polygon fill="#1B3B60" points="602.182,144.206 604.542,149.206 611.064,147.582 608.438,142.647 			"/>
			<polygon fill="#1B3B60" points="585.906,147.091 584.068,141.959 578.104,143.446 579.677,148.642 			"/>
			<polygon fill="#1B3B60" points="588.125,153.297 586.289,148.167 580.011,149.73 581.581,154.926 			"/>
			<polygon fill="#1B3B60" points="609.576,142.363 612.2,147.297 618.704,145.676 615.818,140.807 			"/>
			<polygon fill="#1B3B60" points="615.37,153.267 622.195,151.565 619.31,146.693 612.749,148.328 			"/>
			<polygon fill="#1B3B60" points="577.101,169.563 584.283,167.775 582.709,162.575 575.789,164.298 			"/>
			<polygon fill="#1B3B60" points="609.128,161.581 606.77,156.58 599.863,158.3 601.964,163.367 			"/>
			<polygon fill="#1B3B60" points="575.516,163.201 582.382,161.487 580.807,156.288 574.205,157.935 			"/>
			<polygon fill="#1B3B60" points="573.93,156.835 580.474,155.204 578.904,150.006 572.617,151.572 			"/>
			<polygon fill="#1B3B60" points="600.846,163.645 598.75,158.578 591.839,160.301 593.671,165.433 			"/>
			<polygon fill="#1B3B60" points="598.309,157.519 596.214,152.451 589.618,154.093 591.455,159.227 			"/>
			<polygon fill="#1B3B60" points="606.274,155.533 603.909,150.532 597.329,152.171 599.424,157.241 			"/>
			<polygon fill="#1B3B60" points="599.329,138.156 601.689,143.156 607.89,141.611 605.266,136.677 			"/>
			<polygon fill="#1B3B60" points="592.565,165.709 590.731,160.577 583.816,162.299 585.387,167.496 			"/>
			<polygon fill="#1B3B60" points="596.884,151.115 603.418,149.486 601.057,144.488 594.789,146.047 			"/>
			<polygon fill="#1B3B60" points="590.343,159.504 588.505,154.372 581.908,156.016 583.485,161.212 			"/>
			<polygon fill="#1B3B60" points="587.4,147.891 589.239,153.02 595.772,151.391 593.677,146.326 			"/>
			<polygon fill="#1B3B60" points="585.179,141.683 587.016,146.812 593.237,145.263 591.139,140.198 			"/>
			<polygon fill="#1B3B60" points="592.252,139.921 594.348,144.982 600.562,143.436 598.202,138.437 			"/>
			<polygon fill="#1B3B60" points="528.685,154.589 534.557,153.127 534.557,151.079 528.782,152.517 			"/>
			<polygon fill="#1B3B60" points="534.557,159.886 534.557,154.298 528.63,155.775 528.37,161.429 			"/>
			<polygon fill="#1B3B60" points="558.639,168.573 551.728,170.296 552.25,175.757 559.428,173.966 			"/>
			<polygon fill="#1B3B60" points="557.688,162.052 551.091,163.694 551.618,169.154 558.473,167.445 			"/>
			<polygon fill="#1B3B60" points="566.663,166.574 559.749,168.298 560.536,173.69 567.711,171.901 			"/>
			<polygon fill="#1B3B60" points="549.98,163.971 543.392,165.614 543.656,171.137 550.501,169.433 			"/>
			<polygon fill="#1B3B60" points="565.396,160.13 558.796,161.776 559.586,167.169 566.444,165.459 			"/>
			<polygon fill="#1B3B60" points="542.586,172.574 535.693,174.293 535.694,179.88 542.847,178.098 			"/>
			<polygon fill="#1B3B60" points="535.695,152.844 541.578,151.376 541.481,149.353 535.695,150.794 			"/>
			<polygon fill="#1B3B60" points="550.612,170.572 543.71,172.293 543.971,177.818 551.139,176.032 			"/>
			<polygon fill="#1B3B60" points="534.559,180.165 534.557,174.576 527.68,176.289 527.417,181.943 			"/>
			<polygon fill="#1B3B60" points="542.268,165.894 535.694,167.532 535.691,173.124 542.531,171.418 			"/>
			<polygon fill="#1B3B60" points="564.127,153.688 557.846,155.256 558.633,160.648 565.175,159.016 			"/>
			<polygon fill="#1B3B60" points="556.73,147.6 562.639,146.127 562.254,144.176 556.438,145.624 			"/>
			<polygon fill="#1B3B60" points="549.714,149.348 555.619,147.877 555.331,145.902 549.522,147.35 			"/>
			<polygon fill="#1B3B60" points="542.705,151.097 548.603,149.627 548.407,147.626 542.609,149.072 			"/>
			<polygon fill="#1B3B60" points="569.176,142.45 563.356,143.901 563.74,145.855 569.655,144.379 			"/>
			<polygon fill="#1B3B60" points="574.689,164.574 567.767,166.3 568.818,171.626 576.002,169.838 			"/>
			<polygon fill="#1B3B60" points="562.857,147.246 556.893,148.731 557.681,154.123 563.908,152.572 			"/>
			<polygon fill="#1B3B60" points="569.932,145.483 563.963,146.97 565.014,152.296 571.243,150.743 			"/>
			<polygon fill="#1B3B60" points="573.103,158.21 566.498,159.855 567.549,165.184 574.414,163.473 			"/>
			<polygon fill="#1B3B60" points="571.518,151.848 565.232,153.413 566.279,158.742 572.831,157.109 			"/>
		</g>
		
			<rect x="533.318" y="61.945" transform="matrix(-0.2418 -0.9703 0.9703 -0.2418 590.542 682.4766)" fill="#FFFFFF" width="57.18" height="97.149"/>
		
			<rect x="537.483" y="68.114" transform="matrix(-0.2418 -0.9703 0.9703 -0.2418 589.9444 683.8397)" fill="#1B3B60" width="49.313" height="86.643"/>
		<circle fill="#1B3B60" cx="555.658" cy="85.453" r="1.004"/>
	</g>
	<g>
		<g>
			<path fill="#12263D" d="M666.517,431.957c-6.879,6.994-18.129,7.089-25.126,0.209c-6.997-6.88-7.096-18.129-0.214-25.126
				c6.884-6.997,18.133-7.089,25.127-0.212C673.306,413.706,673.394,424.958,666.517,431.957z"/>
			<g>
				<path fill="#12263D" d="M654.314,420.108c-1.466-2.226-4.459-2.845-6.69-1.379l-91.234,60.022
					c-1.65,1.083-2.411,3.018-2.099,4.851l-8.322,5.477c-0.89,0.585-1.14,1.781-0.552,2.677c0.585,0.896,1.786,1.139,2.677,0.55
					l8.322-5.476c1.562,1.014,3.634,1.081,5.288-0.012l91.234-60.013C655.163,425.336,655.779,422.337,654.314,420.108z"/>
				<path fill="#12263D" d="M586.104,528.539l5.331-8.415c1.839,0.283,3.759-0.51,4.818-2.183l58.467-92.233
					c1.428-2.255,0.761-5.239-1.493-6.666c-2.253-1.431-5.24-0.76-6.666,1.491l-58.467,92.237c-1.063,1.674-0.964,3.745,0.076,5.284
					l-5.333,8.415c-0.571,0.901-0.308,2.098,0.595,2.672C584.337,529.706,585.529,529.44,586.104,528.539z"/>
			</g>
			<path fill="#FAB832" d="M660.359,425.902c-3.533,3.597-9.324,3.645-12.916,0.107c-3.599-3.536-3.65-9.32-0.112-12.917
				c3.54-3.595,9.324-3.646,12.925-0.108C663.849,416.517,663.902,422.304,660.359,425.902z"/>
			<path fill="#12263D" d="M661.935,412.943c-0.356-0.159-0.688-0.385-0.982-0.669c-1.325-1.306-1.345-3.437-0.041-4.762
				l12.052-12.258c1.304-1.325,3.434-1.339,4.758-0.039c1.325,1.304,1.343,3.434,0.039,4.757l-12.051,12.262
				C664.696,413.259,663.182,413.503,661.935,412.943L661.935,412.943z"/>
			<path fill="#12263D" d="M600.785,474.303c-0.18-0.081-0.344-0.193-0.497-0.339c-0.662-0.651-0.669-1.719-0.016-2.378
				l12.052-12.26c0.653-0.66,1.715-0.674,2.376-0.02c0.667,0.651,0.674,1.715,0.022,2.375l-12.048,12.264
				C602.164,474.463,601.408,474.579,600.785,474.303L600.785,474.303z"/>
			<path fill="#12263D" d="M628.737,488.366c-0.162-0.073-0.314-0.174-0.454-0.298l-43.852-40.387
				c-0.684-0.632-0.729-1.696-0.1-2.382c0.626-0.684,1.691-0.729,2.378-0.098l43.856,40.384c0.684,0.63,0.729,1.695,0.098,2.38
				C630.161,488.513,629.38,488.654,628.737,488.366L628.737,488.366z"/>
		</g>
	</g>
	<g>
		<g>
			<path fill="#F6F6F6" d="M591.153,298.005c-0.191-0.047-0.369-0.135-0.524-0.263l-22.143-17.935
				c-0.292-0.236-0.474-0.585-0.498-0.964c-0.024-0.376,0.109-0.746,0.367-1.019l35.954-37.944c0.336-0.355,0.831-0.534,1.312-0.384
				c0.475,0.119,0.848,0.486,0.975,0.956l13.941,51.114c0.102,0.369,0.041,0.764-0.166,1.084c-0.204,0.323-0.535,0.544-0.912,0.608
				l-27.751,4.765C591.522,298.058,591.333,298.05,591.153,298.005L591.153,298.005z M571.327,278.626l20.526,16.628l25.678-4.41
				l-12.914-47.356L571.327,278.626L571.327,278.626z"/>
		</g>
		<g>
			<path fill="#F6F6F6" d="M618.432,293.02l-22.091-16.085l-26.845,3.167l-0.317-2.692l27.371-3.228
				c0.339-0.039,0.68,0.05,0.955,0.252l22.522,16.398L618.432,293.02L618.432,293.02z"/>
		</g>
		<g>
			<path fill="#F6F6F6" d="M574.815,280.109c-0.748,3.024-3.805,4.874-6.83,4.122c-3.026-0.746-4.872-3.805-4.124-6.829
				c0.747-3.024,3.807-4.873,6.831-4.125C573.717,274.026,575.564,277.085,574.815,280.109z"/>
		</g>
		<g>
			<path fill="#F6F6F6" d="M624.707,293.279c-0.747,3.027-3.806,4.873-6.83,4.122c-3.028-0.746-4.872-3.805-4.124-6.829
				c0.747-3.024,3.805-4.874,6.83-4.122C623.61,287.196,625.456,290.255,624.707,293.279z"/>
		</g>
		<g>
			<path fill="#F6F6F6" d="M602.186,276.881c-0.747,3.025-3.804,4.871-6.83,4.122c-3.025-0.745-4.871-3.804-4.123-6.832
				c0.747-3.024,3.804-4.871,6.831-4.122C601.09,270.799,602.934,273.857,602.186,276.881z"/>
		</g>
		<g>
			<polygon fill="#F6F6F6" points="592.793,297.017 590.163,296.366 603.976,240.485 606.604,241.135 592.793,297.017 			"/>
		</g>
		<circle fill="#F6F6F6" cx="591.479" cy="296.69" r="5.642"/>
		<g>
			<circle fill="#F6F6F6" cx="605.29" cy="240.812" r="5.642"/>
		</g>
	</g>
	<g>
		<path fill="#F6F6F6" d="M549.052,114.721l-0.443,0.273l0.521,0.045l6.078,0.777l0.437,1.778l-8.538-1.548l-0.325-1.324l6.85-5.32
			l0.437,1.778L549.052,114.721z"/>
		<path fill="#F6F6F6" d="M562.068,119.103l-1.506,0.37l1.991-15.699l1.497-0.368L562.068,119.103z"/>
		<path fill="#F6F6F6" d="M568.735,107.518l-0.426-1.733l8.854,1.461l0.325,1.324l-7.166,5.408l-0.428-1.742l5.325-3.656
			l0.507-0.289l-0.586-0.038L568.735,107.518z"/>
	</g>
</g>
<g>
	<g>
		<circle fill="none" stroke="#FFFFFF" stroke-width="0.9111" stroke-miterlimit="10" cx="199.554" cy="143.433" r="8.868"/>
		<circle fill="#FFFFFF" cx="199.555" cy="143.433" r="4.234"/>
	</g>
	
		<polyline fill="none" stroke="#FFFFFF" stroke-width="1.3666" stroke-linecap="round" stroke-miterlimit="10" stroke-dasharray="3.6443" points="
		208.04,146.788 255.092,168.063 338.696,72.888 	"/>
	<g>
		<path fill="#283C54" d="M392.721,78.832c-14.145,6.477-30.923,0.242-37.4-13.903l-12.657-27.633l12.55-5.747l12.656,27.634
			c3.309,7.221,11.876,10.407,19.1,7.098c7.224-3.307,10.407-11.876,7.1-19.1l-12.656-27.632l12.549-5.748l12.656,27.634
			C413.1,55.576,406.865,72.355,392.721,78.832L392.721,78.832z"/>
		<g>
			
				<rect x="384.063" y="15.961" transform="matrix(-0.9091 0.4166 -0.4166 -0.9091 756.317 -117.3791)" fill="#FAB832" width="13.802" height="15.721"/>
			
				<rect x="345.312" y="33.709" transform="matrix(-0.9092 0.4164 -0.4164 -0.9092 689.7429 -67.316)" fill="#FAB832" width="13.803" height="15.721"/>
		</g>
		<polygon fill="#CF7719" points="360.463,0 358.846,16.501 363.01,13.33 364.158,25.724 369.404,21.725 371.748,36.588 
			371.72,16.131 367.678,19.456 365.909,7.471 361.107,10.835 		"/>
	</g>
	<g>
		<g>
			<path fill="#DFDFDF" d="M151.846,179.655l-50.578-23.671c-2.183-1.021-3.124-3.619-2.103-5.802l36.563-78.126
				c1.022-2.183,3.619-3.124,5.802-2.103l50.578,23.671c2.183,1.021,3.124,3.619,2.103,5.802l-36.563,78.126
				C156.626,179.736,154.028,180.677,151.846,179.655z"/>
			
				<rect x="130.36" y="92.691" transform="matrix(0.9057 0.4239 -0.4239 0.9057 57.6906 -57.3776)" fill="#DFDFDF" width="54.937" height="16.615"/>
			<polygon fill="#DFDFDF" points="131.855,96 138.124,82.604 136.471,81.831 129.429,96.879 179.186,120.166 179.96,118.513 			"/>
			<path fill="#DFDFDF" d="M155.782,86.171l-15.335-7.177c-0.671-0.314-0.961-1.113-0.647-1.784l0,0
				c0.314-0.671,1.113-0.961,1.784-0.647l15.335,7.177c0.671,0.314,0.961,1.113,0.647,1.784l0,0
				C157.252,86.195,156.453,86.485,155.782,86.171z"/>
			
				<rect x="113.343" y="108.902" transform="matrix(0.9057 0.4239 -0.4239 0.9057 71.4994 -46.736)" fill="#DFDFDF" width="54.937" height="56.918"/>
			
				<rect x="127.086" y="108.104" transform="matrix(0.9057 0.4239 -0.4239 0.9057 60.0322 -45.0938)" fill="#DFDFDF" width="8.6" height="8.6"/>
			
				<rect x="138.628" y="113.506" transform="matrix(0.9057 0.4239 -0.4239 0.9057 63.4097 -49.4767)" fill="#DFDFDF" width="8.6" height="8.6"/>
			
				<rect x="150.17" y="118.907" transform="matrix(0.9057 0.4239 -0.4239 0.9057 66.7876 -53.8598)" fill="#DFDFDF" width="8.6" height="8.6"/>
			
				<rect x="161.711" y="124.309" transform="matrix(0.9057 0.4239 -0.4239 0.9057 70.1662 -58.2432)" fill="#DFDFDF" width="8.6" height="8.6"/>
			
				<rect x="121.739" y="119.53" transform="matrix(0.9057 0.4239 -0.4239 0.9057 64.3711 -41.7501)" fill="#DFDFDF" width="8.6" height="8.6"/>
			
				<rect x="133.281" y="124.932" transform="matrix(0.9057 0.4239 -0.4239 0.9057 67.7488 -46.1331)" fill="#DFDFDF" width="8.6" height="8.6"/>
			
				<rect x="144.822" y="130.333" transform="matrix(0.9057 0.4239 -0.4239 0.9057 71.1265 -50.516)" fill="#DFDFDF" width="8.6" height="8.6"/>
			
				<rect x="156.364" y="135.735" transform="matrix(0.9057 0.4239 -0.4239 0.9057 74.5043 -54.8991)" fill="#DFDFDF" width="8.6" height="8.6"/>
			
				<rect x="116.392" y="130.956" transform="matrix(0.9057 0.4239 -0.4239 0.9057 68.7109 -38.4066)" fill="#DFDFDF" width="8.6" height="8.6"/>
			
				<rect x="127.934" y="136.357" transform="matrix(0.9057 0.4239 -0.4239 0.9057 72.0877 -42.7894)" fill="#DFDFDF" width="8.6" height="8.6"/>
			
				<rect x="139.475" y="141.759" transform="matrix(0.9057 0.4239 -0.4239 0.9057 75.4663 -47.1727)" fill="#DFDFDF" width="8.6" height="8.6"/>
			
				<rect x="148.343" y="146.566" transform="matrix(0.9057 0.4239 -0.4239 0.9057 81.0124 -49.8834)" fill="#DFDFDF" width="8.6" height="21.215"/>
			
				<rect x="111.045" y="142.381" transform="matrix(0.9057 0.4239 -0.4239 0.9057 73.0489 -35.0627)" fill="#DFDFDF" width="8.6" height="8.6"/>
			
				<rect x="122.586" y="147.783" transform="matrix(0.9057 0.4239 -0.4239 0.9057 76.4266 -39.4456)" fill="#DFDFDF" width="8.6" height="8.6"/>
			
				<rect x="134.128" y="153.184" transform="matrix(0.9057 0.4239 -0.4239 0.9057 79.8043 -43.8286)" fill="#DFDFDF" width="8.6" height="8.6"/>
		</g>
		<g>
			<g>
				<path fill="#283C54" d="M149.959,177.769l-50.578-23.671c-2.183-1.021-3.124-3.619-2.103-5.802l36.563-78.126
					c1.022-2.183,3.619-3.124,5.802-2.103l50.578,23.671c2.183,1.021,3.124,3.619,2.103,5.802l-36.563,78.126
					C154.74,177.849,152.142,178.79,149.959,177.769z"/>
				
					<rect x="128.474" y="90.805" transform="matrix(0.9057 0.4239 -0.4239 0.9057 56.7132 -56.7558)" fill="#F6F6F6" width="54.937" height="16.615"/>
				<polygon fill="#E0E0E0" points="129.968,94.114 136.238,80.718 134.585,79.945 127.542,94.993 177.3,118.279 178.073,116.627 
									"/>
				<path fill="#FAB832" d="M153.895,84.284l-15.335-7.177c-0.671-0.314-0.961-1.113-0.647-1.784l0,0
					c0.314-0.671,1.113-0.961,1.784-0.647l15.335,7.177c0.671,0.314,0.961,1.113,0.647,1.784l0,0
					C155.366,84.309,154.567,84.598,153.895,84.284z"/>
				
					<rect x="111.456" y="107.015" transform="matrix(0.9057 0.4239 -0.4239 0.9057 70.5219 -46.1143)" fill="#BDBCBC" width="54.937" height="56.918"/>
				<g>
					
						<rect x="125.2" y="106.218" transform="matrix(0.9057 0.4239 -0.4239 0.9057 59.0547 -44.472)" fill="#626261" width="8.6" height="8.6"/>
					
						<rect x="136.742" y="111.62" transform="matrix(0.9057 0.4239 -0.4239 0.9057 62.4323 -48.855)" fill="#626261" width="8.6" height="8.6"/>
					
						<rect x="148.283" y="117.021" transform="matrix(0.9057 0.4239 -0.4239 0.9057 65.8101 -53.238)" fill="#626261" width="8.6" height="8.6"/>
					
						<rect x="159.825" y="122.423" transform="matrix(0.9057 0.4239 -0.4239 0.9057 69.1887 -57.6215)" fill="#626261" width="8.6" height="8.6"/>
					
						<rect x="119.853" y="117.644" transform="matrix(0.9057 0.4239 -0.4239 0.9057 63.3937 -41.1283)" fill="#626261" width="8.6" height="8.6"/>
					
						<rect x="131.394" y="123.045" transform="matrix(0.9057 0.4239 -0.4239 0.9057 66.7714 -45.5113)" fill="#626261" width="8.6" height="8.6"/>
					
						<rect x="142.936" y="128.447" transform="matrix(0.9057 0.4239 -0.4239 0.9057 70.149 -49.8943)" fill="#626261" width="8.6" height="8.6"/>
					
						<rect x="154.478" y="133.848" transform="matrix(0.9057 0.4239 -0.4239 0.9057 73.5269 -54.2774)" fill="#626261" width="8.6" height="8.6"/>
					
						<rect x="114.505" y="129.069" transform="matrix(0.9057 0.4239 -0.4239 0.9057 67.7334 -37.7849)" fill="#626261" width="8.6" height="8.6"/>
					
						<rect x="126.047" y="134.471" transform="matrix(0.9057 0.4239 -0.4239 0.9057 71.1103 -42.1676)" fill="#626261" width="8.6" height="8.6"/>
					
						<rect x="137.589" y="139.872" transform="matrix(0.9057 0.4239 -0.4239 0.9057 74.4889 -46.5509)" fill="#626261" width="8.6" height="8.6"/>
					
						<rect x="146.457" y="144.679" transform="matrix(0.9057 0.4239 -0.4239 0.9057 80.0349 -49.2617)" fill="#FAB832" width="8.6" height="21.215"/>
					
						<rect x="109.158" y="140.495" transform="matrix(0.9057 0.4239 -0.4239 0.9057 72.0715 -34.4409)" fill="#626261" width="8.6" height="8.6"/>
					
						<rect x="120.7" y="145.897" transform="matrix(0.9057 0.4239 -0.4239 0.9057 75.4492 -38.8239)" fill="#626261" width="8.6" height="8.6"/>
					
						<rect x="132.242" y="151.298" transform="matrix(0.9057 0.4239 -0.4239 0.9057 78.8269 -43.2069)" fill="#626261" width="8.6" height="8.6"/>
				</g>
			</g>
		</g>
	</g>
</g>
<g>
	<path fill="#FFE05F" d="M345.066,663.777h134.31c-4.88-33.257-10.635-66.381-17.269-99.322c-1.434-0.563-2.791-1.434-4.097-2.305
		c-16.518-10.961-33.932-21.179-53.139-26.044c-19.233-4.84-40.667-3.816-57.518,6.658c-5.839,3.611-10.986,8.246-16.467,12.369
		c-2.433,1.818-6.274,3.38-8.041,0.922c-0.435-0.589-0.615-1.306-0.743-2.023c-5.583,21.896-2.766,45.251,4.174,66.763
		C331.071,635.702,337.778,649.88,345.066,663.777z"/>
	<g>
		<path fill="#D7B50D" d="M429.069,547.706c-8.647,16.41-24.972,27.267-43.445,28.918c-1.64,0.147-1.452,2.701,0.193,2.554
			c19.384-1.733,36.484-13.135,45.555-30.35C432.142,547.366,429.836,546.249,429.069,547.706z"/>
	</g>
	<g>
		<path fill="#D7B50D" d="M413.652,663.777c-2.546-5.233-5.027-10.497-7.397-15.818c-16.105-36.156-28.322-74.305-29.055-114.188
			c-0.03-1.649-2.584-1.451-2.553,0.193c0.845,46.005,16.569,88.745,36.099,129.813H413.652z"/>
	</g>
	<g>
		<path fill="#2A283D" d="M467.439,219.661l-13.402,1.262c1.641,17.819,0.227,35.815-4.518,53.18
			c-0.076,0.253-0.126,0.48-0.202,0.732c1.514-22.413,1.312-42.504,2.221-66.052c-0.278-0.177-0.353-0.757-0.353-1.464
			c0-1.691,0.429-4.089-0.303-3.761c-1.085,0.429-2.019,1.237-2.928,1.994c-6.966,5.502-16.355,7.799-25.063,6.159
			c-5.098-0.934-10.222-3.18-15.27-1.994c-5.856,1.388-9.692,6.916-12.065,12.418c-2.373,5.477-3.912,11.509-7.749,16.103
			c-5.654,6.865-16.103,8.455-24.154,4.669c-0.404,0-0.757,0.076-1.085,0.202c-1.211,0.429-2.145,1.363-2.978,2.322
			c-4.467,5.376-5.477,13.377-2.448,19.687c3.054,6.26,9.919,10.475,16.911,10.298h0.328c0.151,5.856,0.328,11.762,0.48,17.668
			c-0.404-0.252-0.833-0.505-1.262-0.732c-0.151-0.051-0.278-0.126-0.429-0.202c-3.508-1.691-7.522-2.448-11.459-2.297
			c-6.688,0.252-13.125,2.877-18.879,6.335c-11.434,6.84-20.798,17.037-26.704,28.975v0.025c-0.025,0-0.076,0.025-0.101,0.05
			c-0.682,0.202-1.338,0.48-2.019,0.757c-2.347,1.035-4.72,2.145-6.991,3.307h-0.025c-8.405-0.883-15.952-8.355-16.229-16.936
			c-0.202-5.578,2.246-11.08,1.691-16.633c-0.631-6.007-4.669-11.232-5.401-17.239c-0.984-7.749,3.836-15.169,9.692-20.368
			c5.351-4.77,11.964-8.632,15.194-15.043c4.392-8.783,1.136-19.662,4.341-28.9c3.256-9.313,12.342-15.219,21.454-19.005
			c9.061-3.786,18.854-6.285,26.855-12.039c10.373-7.496,17.794-20.495,30.439-22.438c7.698-1.186,15.321,2.196,22.034,6.133
			c6.689,3.912,13.226,8.531,20.772,10.247c6.638,1.514,13.781,0.732,20.065,3.256c7.597,3.029,12.898,11.08,12.696,19.233
			C470.417,206.36,466.833,212.973,467.439,219.661z"/>
		<path fill="#2A283D" d="M413.956,321.175c1.363-5.704,2.473-11.459,3.332-17.264c-0.202,5.856-0.858,11.636-1.918,17.34
			c-0.454-0.025-0.909-0.051-1.363-0.051L413.956,321.175z"/>
		<path fill="#2A283D" d="M417.54,302.346c1.918,0.631,3.836,1.237,5.78,1.691c-1.843-0.025-3.811-0.379-5.856-1.136
			C417.489,302.725,417.514,302.523,417.54,302.346z"/>
		<path fill="#2A283D" d="M469.003,264.487c-2.398,4.77-5.326,9.692-4.922,15.018c0.328,4.038,2.549,7.673,3.407,11.635
			c1.641,7.85-2.549,16.027-8.582,21.302c-3.811,3.332-8.279,5.704-12.897,7.749l2.6,4.568l-0.076,0.051
			c-6.058-0.379-12.14-0.505-18.173-0.379c-0.051,0.429-0.076,0.858-0.126,1.287c-4.467-2.675-9.642-4.24-14.866-4.467
			c1.06-5.704,1.716-11.484,1.918-17.34c0.076-0.328,0.126-0.681,0.177-1.009c2.044,0.757,4.013,1.111,5.856,1.136
			c13.554,0.126,22.489-16.936,25.997-29.202c0.076-0.252,0.126-0.48,0.202-0.732c4.745-17.365,6.073-36.297,4.433-54.117
			l13.439-1.072c0.025,0.505,0.15,1.756,0.251,2.26c0.782,4.165,3.357,7.774,4.947,11.711
			C476.626,243.033,473.849,254.719,469.003,264.487z"/>
		<path fill="#F5A874" d="M449.518,274.103c-0.076,0.253-0.126,0.48-0.202,0.732c-3.508,12.266-12.443,29.329-25.997,29.202
			c-1.843-0.025-3.811-0.379-5.856-1.136c-0.051,0-0.076,0-0.126-0.025c0,0.353-0.025,0.682-0.051,1.035
			c-0.202,5.856-0.858,11.636-1.918,17.34c-1.489,7.774-3.786,15.396-6.89,22.817c-0.177,0.429-0.48,0.631-0.833,0.682
			c-0.252,1.06-1.944,1.439-2.373,0.151c-6.335-19.056-16.583-36.295-30.237-50.984c-0.656,0.076-1.363-0.252-1.413-1.111
			c0-0.151-0.025-0.303-0.025-0.454c-0.278-4.669-0.555-9.364-0.833-14.033c-9.541-1.641-17.188-8.708-18.45-18.602
			c-0.505-4.165,0.253-9.086,2.448-12.721c0.025-0.202,0.101-0.404,0.252-0.606c0.202-0.252,0.429-0.454,0.631-0.682
			c2.095-2.675,5.124-4.341,9.238-3.836c0.353,0.025,0.606,0.202,0.757,0.404c5.073,0.227,10.474,1.615,15.018-1.161
			c8.279-5.048,8.354-16.961,13.2-24.432c12.595-19.384,41.317,4.013,52.802-14.361c-0.025-0.101-0.025-0.202-0.051-0.303
			c-0.353-1.565,2.019-2.423,2.373-0.858c1.439,6.537,2.474,13.125,3.054,19.763C455.677,238.742,454.263,256.738,449.518,274.103z"
			/>
		<g>
			<path fill="#D17536" d="M437.251,238.164c-0.152,9.872-0.305,19.744-0.457,29.616c-3.527-0.45-7.054-0.899-10.581-1.349
				c-1.629-0.208-2.129,2.305-0.493,2.514c4.027,0.513,8.054,1.027,12.081,1.54c0.88,0.112,1.51-0.487,1.523-1.353
				c0.16-10.387,0.321-20.774,0.481-31.16C439.83,236.324,437.276,236.526,437.251,238.164z"/>
		</g>
		<g>
			<path fill="#2A283D" d="M423.634,225.78c-5.675-4.101-14.389-3.773-19.76,0.428c-2.243,1.754,1.647,4.165,3.884,2.415
				c3.585-2.804,8.88-2.676,12.537-0.033C422.631,230.277,425.956,227.458,423.634,225.78z"/>
		</g>
		<g>
			<path fill="#2A283D" d="M454.223,224.736c-4.831-1.392-10.337-0.618-13.861,2.003c-2.205,1.64,1.682,3.866,3.884,2.228
				c1.951-1.451,5.036-1.935,7.732-1.158C455.001,228.679,457.253,225.609,454.223,224.736z"/>
		</g>
		<g>
			<path fill="#2A283D" d="M412.403,232.113c-3.373,0.528-4.541,5.08-3.978,7.917c0.142,0.716,0.493,1.35,1.003,1.787
				c0.258,0.705,0.66,1.337,1.261,1.828c3.228,2.642,6.284-1.486,6.744-4.418C417.933,236.029,416.397,231.487,412.403,232.113z"/>
		</g>
		<g>
			<path fill="#2A283D" d="M445.968,232.385c-3.033,1.297-3.843,5.815-3.295,8.691c0.143,0.752,0.531,1.402,1.085,1.838
				c0.586,1.054,1.499,1.814,2.866,1.912c3.586,0.257,4.895-4.489,4.909-7.281C451.547,234.543,449.476,230.886,445.968,232.385z"/>
		</g>
		<g>
			<path fill="#E84055" d="M438.474,284.328c-6.768,1.33-13.417,0.009-19.056-4.021c-1.332-0.952-3.012,0.982-1.669,1.942
				c6.154,4.397,13.473,6.096,20.919,4.633C440.264,286.568,440.091,284.01,438.474,284.328z"/>
		</g>
		<g>
			<path fill="#D17536" d="M373.964,258.99c-0.625-2.428-3.442-4.154-5.242-1.711c-0.973,1.321,0.963,2.999,1.942,1.669l0.919,1.102
				c-0.102,0.645-0.204,1.291-0.306,1.936c-0.508,1.146-1.847,2.074-3.098,2.145c-2.726,0.154-4.036-2.538-4.48-4.783
				c-0.716-3.623-0.018-7.209,1.625-10.478c0.742-1.476-1.562-2.595-2.302-1.123c-2.672,5.315-3.99,20.9,6.226,18.812
				C372.63,265.869,374.828,262.345,373.964,258.99z"/>
		</g>
		<g>
			<path fill="#D17536" d="M417.249,300.884c-13.677-5.907-25.905-14.165-36.498-24.639c-1.174-1.161-2.837,0.787-1.669,1.942
				c10.746,10.626,23.172,19.008,37.045,25C417.638,303.839,418.764,301.538,417.249,300.884z"/>
		</g>
	</g>
	<g>
		<path fill="#38387F" d="M257.337,433.004c3.329,0.307,6.402-1.613,9.04-3.688c8.297-6.479,14.905-14.879,21.102-23.407
			c6.863-9.424,13.342-19.13,19.412-29.066c-2.407,35.469,6.121,71.014,5.147,106.636c-0.282,11.038-1.511,21.998-3.073,32.933
			c-0.922,6.582-1.998,13.137-3.047,19.668c-0.615,3.79-1.306,7.785-3.534,10.935c-7.99-1.229-15.622-4.277-21.793-9.45
			c-11.985-9.988-16.902-26.07-19.719-41.41c-3.867-21.025-4.891-42.409-5.813-63.741
			C255.749,432.722,256.517,432.927,257.337,433.004z"/>
		<path fill="#E84055" d="M424.385,381.453c-6.428-11.678-12.42-23.586-17.978-35.699l0.282-0.128
			c0.051-0.128,0.077-0.23,0.128-0.359c2.843-7.888,5.224-15.929,7.145-24.098l0.051,0.026c5.66,0.026,11.345,1.613,16.211,4.533
			C428.534,344.345,426.588,362.912,424.385,381.453z"/>
		<path fill="#38387F" d="M305.917,536.081c1.05-6.53,2.126-13.086,3.047-19.668l6.966,1.024c-0.82,6.044-0.538,12.011,2.151,17.389
			c1.997-1.998,3.969-4.046,5.865-6.146c-1.818,5.813-2.689,11.934-2.535,18.029c-6.249,1.127-12.753,1.28-19.028,0.307
			C304.611,543.866,305.303,539.871,305.917,536.081z"/>
		<path fill="#E84055" d="M369.223,430.289c-4.917-6.607-9.603-13.342-14.034-20.257c-8.553-13.266-16.313-27.299-20.385-42.562
			c-4.046-15.263-4.123-31.986,2.305-46.404c6.453-14.418,20.078-26.044,35.802-27.658l0.256-1.255
			c0.589,0.282,1.152,0.589,1.69,0.922c0,0.205,0,0.384,0.026,0.589h0.23c14.162,14.597,25.097,32.37,31.704,51.602
			c-0.051,0.128-0.077,0.23-0.128,0.359l-0.282,0.128c5.557,12.113,11.55,24.021,17.978,35.699c1.024,1.895,2.074,3.765,3.124,5.634
			c8.477,15.007,17.67,29.63,27.504,43.766c4.277,6.146,8.707,12.267,12.6,18.669c2.919,4.891,5.532,9.936,7.478,15.314
			c2.254,6.172,3.534,13.137,1.076,19.232c-0.154,0.384-0.307,0.768-0.487,1.127c-1.69,3.38-4.482,6.121-7.76,8.041
			c-2.305,1.357-4.866,2.33-7.478,2.843c-6.735,1.332-13.752,0.077-20.257-2.126c-8.092-2.74-15.494-6.889-22.357-11.857
			c-0.051-0.026-0.102-0.051-0.128-0.102l-11.14-9.142c-4.968-4.507-9.655-9.373-14.136-14.29
			c-6.223-6.863-12.19-13.957-17.875-21.256C372.732,435.001,370.939,432.645,369.223,430.289z"/>
		<path fill="#E84055" d="M505.797,454.592c3.432,6.453,5.941,13.752,4.84,20.974c-1.127,7.555-6.095,14.085-12.216,18.643
			c-6.095,4.507-13.266,7.299-20.436,9.783c0.512-1.255,0.922-2.535,1.204-3.867c1.076-5.147-0.282-10.756-3.508-14.93
			c0.179-0.359,0.333-0.743,0.487-1.127c2.458-6.095,1.178-13.061-1.076-19.232c-1.946-5.378-4.558-10.423-7.478-15.314
			c4.149-3.457,5.916-8.989,7.222-14.213c0.896-3.508,1.69-7.196,1.383-10.756C488.69,431.442,499.113,441.993,505.797,454.592z"/>
		<path fill="#F5A874" d="M477.985,503.992c-0.435,1.152-0.973,2.305-1.485,3.457c-0.102,0.23-0.205,0.435-0.307,0.666
			c-0.461,1.05-0.999,2.126-1.716,3.047c-1.946,2.535-5.071,3.841-8.041,5.045l-2.126-0.333l3.611-22.638
			c3.278-1.921,6.069-4.661,7.76-8.041c3.227,4.174,4.584,9.783,3.508,14.93C478.907,501.457,478.497,502.737,477.985,503.992z"/>
		<path fill="#E84055" d="M462.107,564.455c-1.434-0.563-2.791-1.434-4.097-2.305c-16.518-10.961-33.932-21.179-53.139-26.044
			c-19.232-4.84-40.667-3.816-57.518,6.658c-5.839,3.611-10.986,8.246-16.467,12.369c-2.433,1.818-6.274,3.38-8.041,0.922
			c-0.435-0.589-0.615-1.306-0.743-2.023c-0.051-0.179-0.077-0.333-0.102-0.487c-0.333-2.279-0.538-4.558-0.589-6.838
			c-0.154-6.095,0.717-12.216,2.535-18.029c23.816-25.865,41.359-57.467,50.604-91.373c5.685,7.299,11.652,14.392,17.875,21.256
			c4.482,4.917,9.168,9.783,14.136,14.29l-4.123,23.33l11.806,7.529l-0.051,0.307l1.024,0.307l48.504,15.161l0.589-3.611
			l2.126,0.333c2.971-1.204,6.095-2.51,8.041-5.045c0.717-0.922,1.255-1.997,1.716-3.047c0.819,16.492,0.333,33.061-1.46,49.477
			l-0.384-0.051c-2.023,3.534-4.815,7.375-8.886,7.555C464.31,565.172,463.183,564.916,462.107,564.455z"/>
		<path fill="#F5A874" d="M476.218,424.553c0.307,3.56-0.487,7.247-1.383,10.756c-1.306,5.224-3.073,10.756-7.222,14.213
			c-3.893-6.402-8.323-12.523-12.6-18.669c-9.834-14.136-19.028-28.759-27.504-43.766l0.999-0.563
			c2.023-3.637,4.815-7.478,8.938-8.041c2.74-0.384,5.199,0.743,7.375,2.484l-0.077,1.127l19.591,22.741
			c1.869,2.382,3.713,4.738,5.583,7.119c2.407,3.047,4.866,6.223,5.864,9.988C476.013,422.786,476.141,423.682,476.218,424.553z"/>
		<path fill="#FFE05F" d="M448.611,324.754l21.665,37.978l-5.941,42.101c-4.866-6.197-9.731-12.42-14.597-18.618
			c-1.434-1.818-3.073-3.765-4.917-5.25l3.713-56.161L448.611,324.754z"/>
		<path fill="#FFE05F" d="M467.921,493.236l-3.611,22.638l-0.589,3.611l-48.504-15.161l-0.973-0.615l3.585-21.614
			c6.863,4.968,14.264,9.117,22.357,11.857c6.505,2.202,13.522,3.457,20.257,2.126C463.055,495.567,465.616,494.594,467.921,493.236
			z"/>
		<path fill="#FBCBA5" d="M449.738,386.216c4.866,6.197,9.731,12.42,14.597,18.618l-19.591-22.741l0.077-1.127
			C446.665,382.451,448.304,384.398,449.738,386.216z"/>
		<path fill="#FFFFFF" d="M430.224,325.727c0.051-0.435,0.077-0.871,0.128-1.306c6.044-0.128,12.113,0,18.182,0.384l-3.713,56.161
			c-2.177-1.741-4.635-2.868-7.375-2.484c-4.123,0.563-6.914,4.405-8.938,8.041l-0.999,0.563c-1.05-1.869-2.1-3.739-3.124-5.634
			C426.588,362.912,428.534,344.345,430.224,325.727z"/>
		<path fill="#FFFFFF" d="M417.829,482.096l-3.585,21.614l-11.806-7.529l4.123-23.33c3.56,3.278,7.273,6.351,11.14,9.142
			C417.727,482.045,417.778,482.071,417.829,482.096z"/>
		<path fill="#E84055" d="M406.561,472.852l11.14,9.142C413.834,479.203,410.121,476.13,406.561,472.852z"/>
		<polygon fill="#FFE05F" points="415.217,504.325 414.193,504.018 414.244,503.711 		"/>
		<path fill="#38387F" d="M333.703,368.033c-4.456,2.305-10.32,1.767-14.239-1.409c-1.613-1.306-2.868-2.971-3.816-4.815
			c-0.845-1.588-1.434-3.355-1.818-5.122c-0.794-3.79-0.691-7.708-0.461-11.575c0.384-6.684,1.101-13.368,2.663-19.873
			c0.026-0.026,0.077-0.051,0.102-0.051v-0.026c5.89-11.934,15.263-22.126,26.685-28.964c5.762-3.457,12.19-6.095,18.9-6.351
			c3.918-0.154,7.939,0.615,11.447,2.305l-0.256,1.255c-15.724,1.613-29.348,13.24-35.802,27.658
			c-6.428,14.418-6.351,31.141-2.305,46.404l-0.256,0.077C334.267,367.726,333.985,367.88,333.703,368.033z"/>
		<path fill="#38387F" d="M319.106,504.991c2.177-7.222,7.708-13.214,12.753-19.028c0.23-0.282,0.487-0.538,0.717-0.819
			c14.444-16.672,26.787-35.136,36.647-54.855c1.716,2.356,3.508,4.712,5.327,7.017c-9.245,33.907-26.787,65.508-50.604,91.373
			c-1.895,2.1-3.867,4.149-5.865,6.146c-2.689-5.378-2.971-11.345-2.151-17.389c0.563-4.226,1.665-8.477,2.843-12.548
			L319.106,504.991z"/>
		<path fill="#E84055" d="M355.189,410.032c4.43,6.914,9.117,13.65,14.034,20.257c-9.86,19.719-22.203,38.183-36.647,54.855
			l-1.588-1.357c3.688-4.584,4.43-10.807,4.891-16.672c2.612-32.985,0.23-66.097-2.177-99.082c0.282-0.154,0.563-0.307,0.845-0.487
			l0.256-0.077C338.876,382.733,346.636,396.767,355.189,410.032z"/>
		<path fill="#38387F" d="M318.773,504.889c-1.178,4.072-2.279,8.323-2.843,12.548l-6.966-1.024
			c1.562-10.935,2.791-21.896,3.073-32.933c0.973-35.622-7.555-71.168-5.147-106.636v-0.026c3.047-4.943,5.967-9.936,8.758-15.007
			c0.948,1.844,2.202,3.508,3.816,4.815c3.918,3.176,9.783,3.713,14.239,1.409c2.407,32.985,4.789,66.097,2.177,99.082
			c-0.461,5.865-1.204,12.087-4.891,16.672l1.588,1.357c-0.23,0.282-0.487,0.538-0.717,0.819
			c-5.045,5.813-10.577,11.806-12.753,19.028L318.773,504.889z"/>
		<path fill="#38387F" d="M306.89,376.817v0.026c-6.069,9.936-12.548,19.642-19.412,29.066
			c-6.197,8.528-12.805,16.928-21.102,23.407c-2.638,2.074-5.711,3.995-9.04,3.688c-0.819-0.077-1.588-0.282-2.279-0.589
			c-3.918-1.69-6.249-6.505-7.222-10.909c-3.765-17.081,2.51-34.982,11.985-49.682c11.575-18.003,28.068-32.78,47.172-42.511
			c0,0,0-0.026,0.026,0c2.279-1.178,4.635-2.279,6.991-3.304c0.666-0.282,1.332-0.563,2.023-0.768
			c-1.562,6.505-2.279,13.189-2.663,19.873c-0.23,3.867-0.333,7.785,0.461,11.575c0.384,1.767,0.973,3.534,1.818,5.122
			C312.857,366.881,309.938,371.875,306.89,376.817z"/>
		<g>
			<path fill="#282A5E" d="M332.188,367.006c-10.921,0.604-17.967-8.733-19.189-18.804c-1.023-8.428,1.337-16.772,3.565-24.812
				c0.441-1.591-2.076-2.072-2.514-0.493c-3.03,10.933-6.181,23.093-1.355,34.022c3.495,7.915,10.947,13.124,19.685,12.64
				C334.027,369.468,333.834,366.915,332.188,367.006z"/>
		</g>
		<g>
			<path fill="#282A5E" d="M329.923,480.368c-10.935,6.66-24.011,15.266-24.874,29.46c-0.651,10.724,7.737,20.537,18.875,18.282
				c1.594-0.323,1.421-2.88-0.193-2.554c-14.408,2.918-18.871-13.715-13.614-24.222c4.354-8.702,13.252-13.981,21.261-18.858
				C332.786,481.619,331.329,479.512,329.923,480.368z"/>
		</g>
		<g>
			<path fill="#282A5E" d="M299.318,377.094c0.025-1.856-0.027-3.729-0.185-5.619c-0.048-0.572-0.395-0.909-0.814-1.052
				c-1.628-10.676-3.613-21.309-6.049-31.86c-0.37-1.601-2.779-0.727-2.411,0.865c2.867,12.421,5.165,24.948,6.899,37.54
				c-0.319,24.883-17.639,46.371-42.578,51.377c-1.595,0.32-1.422,2.878,0.193,2.554c22.525-4.522,39.229-21.626,43.729-42.98
				c5.661,50.857,2.158,102.554-10.468,152.32c-0.406,1.601,2.11,2.085,2.514,0.493C303.716,487.246,306.755,431.59,299.318,377.094
				z"/>
		</g>
		<g>
			<path fill="#A01D39" d="M405.484,472.771c-27.688-31.795-59.151-63.098-69.596-105.357c-0.395-1.597-2.804-0.725-2.411,0.865
				c10.496,42.467,42.067,73.988,69.899,105.947C404.447,475.454,406.568,474.015,405.484,472.771z"/>
		</g>
		<g>
			<path fill="#A01D39" d="M426.696,382.29c-6.466-12.937-12.833-25.923-19.099-38.959c-0.706-1.469-3.127-0.624-2.411,0.865
				c6.267,13.035,12.633,26.021,19.099,38.959C425.012,384.609,427.433,383.765,426.696,382.29z"/>
		</g>
		<g>
			<path fill="#A01D39" d="M469.144,449.552c-1.111-1.215-2.77,0.739-1.669,1.942c6.637,7.254,11.794,23.692,8.081,33.1
				c-0.603,1.526,1.697,2.657,2.302,1.122C482.116,474.928,476.714,457.826,469.144,449.552z"/>
		</g>
		<path fill="#38387F" d="M347.481,333.155c-4.946,0-4.343,7.661,0.578,7.661C353.004,340.816,352.402,333.155,347.481,333.155z"/>
		<path fill="#38387F" d="M363.709,316.236c-4.946,0-4.343,7.661,0.578,7.661C369.233,323.897,368.631,316.236,363.709,316.236z"/>
		<path fill="#38387F" d="M380.974,358.707c-4.946,0-4.343,7.661,0.578,7.661C386.497,366.368,385.895,358.707,380.974,358.707z"/>
		<path fill="#38387F" d="M365.781,342.478c-2.197,0.265-3.541,1.962-3.541,4.12v0.345c0,2.014,2.166,3.777,4.12,3.541
			c2.197-0.265,3.541-1.962,3.541-4.12v-0.345C369.901,344.005,367.735,342.242,365.781,342.478z"/>
		<path fill="#38387F" d="M356.803,369.065h-0.345c-2.014,0-3.777,2.166-3.541,4.12c0.265,2.197,1.962,3.541,4.12,3.541h0.345
			c2.014,0,3.777-2.166,3.541-4.12C360.658,370.41,358.961,369.065,356.803,369.065z"/>
		<path fill="#38387F" d="M388.225,337.644h-0.345c-2.014,0-3.777,2.165-3.541,4.12c0.265,2.197,1.962,3.541,4.12,3.541h0.345
			c2.014,0,3.777-2.166,3.541-4.12C392.079,338.988,390.383,337.644,388.225,337.644z"/>
		<path fill="#38387F" d="M405.144,368.03h-0.691c-2.014,0-3.777,2.165-3.541,4.12c0.265,2.197,1.962,3.541,4.12,3.541h0.691
			c2.014,0,3.777-2.166,3.541-4.12C408.999,369.374,407.302,368.03,405.144,368.03z"/>
		<path fill="#38387F" d="M384.081,397.725h-0.345c-2.014,0-3.777,2.165-3.541,4.12c0.265,2.197,1.962,3.541,4.12,3.541h0.345
			c2.014,0,3.777-2.165,3.541-4.119C387.936,399.069,386.239,397.725,384.081,397.725z"/>
		<path fill="#38387F" d="M440.74,430.754c-0.115-0.115-0.23-0.23-0.345-0.345c-1.468-1.468-4.136-1.081-5.417,0.409
			c-1.439,1.673-1.063,3.946,0.409,5.417c0.115,0.115,0.23,0.23,0.345,0.345c1.468,1.468,4.136,1.081,5.417-0.409
			C442.588,434.498,442.212,432.226,440.74,430.754z"/>
		<path fill="#38387F" d="M426.207,459.532c-4.946,0-4.343,7.661,0.578,7.661C431.731,467.193,431.129,459.532,426.207,459.532z"/>
		<path fill="#38387F" d="M462.808,470.927c-2.197,0.265-3.541,1.962-3.541,4.12v0.345c0,2.014,2.166,3.777,4.12,3.541
			c2.197-0.265,3.541-1.962,3.541-4.12v-0.345C466.928,472.454,464.762,470.691,462.808,470.927z"/>
		<path fill="#38387F" d="M485.597,446.756h-0.345c-2.014,0-3.777,2.165-3.541,4.12c0.265,2.197,1.962,3.541,4.119,3.541h0.345
			c2.014,0,3.777-2.166,3.541-4.12C489.452,448.1,487.755,446.756,485.597,446.756z"/>
		<path fill="#38387F" d="M497.682,470.581c-2.197,0.265-3.541,1.962-3.541,4.12v0.345c0,2.014,2.166,3.777,4.12,3.541
			c2.197-0.265,3.541-1.962,3.541-4.12v-0.345C501.802,472.108,499.637,470.346,497.682,470.581z"/>
		<path fill="#38387F" d="M457.314,448.71c-1.674-1.439-3.946-1.063-5.417,0.409l-0.345,0.345c-1.468,1.468-1.081,4.136,0.409,5.417
			c1.674,1.439,3.946,1.063,5.417-0.409c0.115-0.115,0.23-0.23,0.345-0.345C459.191,452.659,458.804,449.99,457.314,448.71z"/>
		<path fill="#38387F" d="M450.802,475.546c-0.116-0.229-0.233-0.459-0.349-0.689c-0.938-1.849-2.785-3.081-4.914-2.32
			c-1.765,0.631-3.264,3.052-2.32,4.914c0.116,0.229,0.233,0.459,0.349,0.689c0.938,1.849,2.785,3.081,4.914,2.32
			C450.247,479.829,451.747,477.408,450.802,475.546z"/>
		<path fill="#38387F" d="M408.865,448.106c-0.138-0.216-0.275-0.432-0.413-0.647c-1.116-1.748-3.682-2.127-5.345-0.979
			c-1.761,1.217-2.099,3.59-0.979,5.344c0.138,0.216,0.275,0.432,0.413,0.647c1.116,1.748,3.682,2.127,5.345,0.979
			C409.648,452.234,409.986,449.861,408.865,448.106z"/>
		<path fill="#38387F" d="M430.351,405.667c-4.946,0-4.343,7.661,0.578,7.661C435.874,413.327,435.272,405.667,430.351,405.667z"/>
		<path fill="#38387F" d="M411.359,395.653c-4.945,0-4.343,7.661,0.578,7.661C416.883,403.314,416.281,395.653,411.359,395.653z"/>
		<path fill="#38387F" d="M415.848,428.801h-0.691c-2.014,0-3.777,2.165-3.541,4.12c0.265,2.197,1.962,3.541,4.119,3.541h0.691
			c2.014,0,3.777-2.165,3.541-4.119C419.703,430.145,418.006,428.801,415.848,428.801z"/>
		<path fill="#38387F" d="M389.637,427.647c-0.345-0.23-0.691-0.46-1.036-0.691c-1.725-1.15-3.949-1.299-5.417,0.409
			c-1.225,1.425-1.327,4.26,0.409,5.417c0.345,0.23,0.691,0.46,1.036,0.691c1.724,1.15,3.949,1.299,5.417-0.409
			C391.271,431.639,391.373,428.804,389.637,427.647z"/>
		<path fill="#38387F" d="M360.602,389.783c-2.197,0.265-3.541,1.962-3.541,4.12v0.345c0,2.014,2.166,3.777,4.12,3.541
			c2.197-0.265,3.541-1.962,3.541-4.12v-0.345C364.721,391.31,362.556,389.547,360.602,389.783z"/>
		<path fill="#38387F" d="M391.678,380.46c-2.197,0.265-3.541,1.962-3.541,4.12v0.345c0,2.014,2.166,3.777,4.12,3.541
			c2.197-0.265,3.541-1.962,3.541-4.119v-0.345C395.797,381.987,393.632,380.224,391.678,380.46z"/>
		<path fill="#38387F" d="M423.13,347.539c-0.115-0.115-0.23-0.23-0.345-0.345c-1.468-1.468-4.136-1.081-5.417,0.409
			c-1.439,1.673-1.063,3.946,0.409,5.417c0.115,0.115,0.23,0.23,0.345,0.345c1.468,1.468,4.136,1.081,5.417-0.409
			C424.978,351.283,424.602,349.011,423.13,347.539z"/>
		<path fill="#38387F" d="M422.064,324.178c-4.946,0-4.343,7.661,0.578,7.661C427.587,331.839,426.985,324.178,422.064,324.178z"/>
		<path fill="#38387F" d="M348.862,418.788c-4.945,0-4.343,7.661,0.578,7.661C354.385,426.448,353.783,418.788,348.862,418.788z"/>
		<path fill="#38387F" d="M344.373,448.137c-4.946,0-4.343,7.661,0.578,7.661C349.897,455.798,349.294,448.137,344.373,448.137z"/>
		<path fill="#38387F" d="M360.602,427.42c-4.946,0-4.343,7.661,0.578,7.661C366.125,435.081,365.523,427.42,360.602,427.42z"/>
		<path fill="#38387F" d="M345.754,434.671c-4.945,0-4.343,7.661,0.578,7.661C351.278,442.332,350.676,434.671,345.754,434.671z"/>
		<path fill="#38387F" d="M380.308,471.852c-0.122-0.107-0.244-0.214-0.366-0.322c-1.559-1.369-4.075-1.152-5.417,0.409
			c-1.369,1.592-1.155,4.044,0.409,5.417c0.122,0.107,0.244,0.214,0.366,0.322c1.559,1.369,4.075,1.152,5.417-0.409
			C382.085,475.676,381.871,473.225,380.308,471.852z"/>
		<path fill="#38387F" d="M393.404,476.797c-2.197,0.265-3.541,1.962-3.541,4.12v0.345c0,2.014,2.165,3.777,4.119,3.541
			c2.197-0.265,3.541-1.962,3.541-4.119v-0.345C397.524,478.324,395.358,476.561,393.404,476.797z"/>
		<path fill="#38387F" d="M382.7,456.77c-4.946,0-4.343,7.661,0.578,7.661C388.224,464.431,387.622,456.77,382.7,456.77z"/>
		<path fill="#38387F" d="M383.391,493.716h-0.345c-2.014,0-3.777,2.165-3.541,4.119c0.265,2.197,1.962,3.541,4.12,3.541h0.345
			c2.014,0,3.777-2.165,3.541-4.12C387.245,495.06,385.549,493.716,383.391,493.716z"/>
		<path fill="#38387F" d="M351.624,518.232h-0.345c-2.014,0-3.777,2.166-3.541,4.12c0.265,2.197,1.962,3.541,4.12,3.541h0.345
			c2.014,0,3.777-2.166,3.541-4.12C355.478,519.576,353.782,518.232,351.624,518.232z"/>
		<path fill="#38387F" d="M340.606,536.759l-0.345-0.345c-1.468-1.468-4.136-1.081-5.417,0.409
			c-1.439,1.673-1.063,3.946,0.409,5.417c0.115,0.115,0.23,0.23,0.345,0.345c1.468,1.468,4.136,1.081,5.417-0.409
			C342.453,540.503,342.077,538.23,340.606,536.759z"/>
		<path fill="#38387F" d="M367.599,497.943c-0.631-1.765-3.052-3.264-4.914-2.32c-0.23,0.116-0.459,0.233-0.689,0.349
			c-1.849,0.938-3.081,2.785-2.32,4.914c0.631,1.765,3.052,3.264,4.914,2.32c0.229-0.116,0.459-0.233,0.689-0.349
			C367.128,501.919,368.36,500.072,367.599,497.943z"/>
		<path fill="#38387F" d="M375.449,521.339h-0.345c-2.014,0-3.777,2.165-3.541,4.12c0.265,2.197,1.962,3.541,4.12,3.541h0.345
			c2.014,0,3.777-2.165,3.541-4.119C379.304,522.683,377.607,521.339,375.449,521.339z"/>
		<path fill="#38387F" d="M404.108,503.729h-0.345c-2.014,0-3.777,2.165-3.541,4.12c0.265,2.197,1.962,3.541,4.12,3.541h0.345
			c2.014,0,3.777-2.165,3.541-4.119C407.963,505.074,406.266,503.729,404.108,503.729z"/>
		<path fill="#38387F" d="M412.741,527.9c-4.946,0-4.343,7.661,0.578,7.661C418.264,535.561,417.662,527.9,412.741,527.9z"/>
		<path fill="#38387F" d="M433.113,514.088c-2.197,0.265-3.541,1.962-3.541,4.12v0.345c0,2.014,2.165,3.777,4.119,3.541
			c2.197-0.265,3.541-1.962,3.541-4.12v-0.345C437.232,515.615,435.067,513.852,433.113,514.088z"/>
		<path fill="#38387F" d="M441.975,537.632c-0.229-0.116-0.459-0.233-0.689-0.349c-1.85-0.939-4.238-0.073-5.137,1.77
			c-0.925,1.896-0.086,4.196,1.77,5.137c0.23,0.116,0.459,0.233,0.689,0.349c1.85,0.939,4.238,0.073,5.137-1.77
			C444.67,540.873,443.83,538.573,441.975,537.632z"/>
		<path fill="#38387F" d="M466.292,521.911c-1.674-1.439-3.946-1.063-5.417,0.409c-0.115,0.115-0.23,0.23-0.345,0.345
			c-1.468,1.468-1.081,4.136,0.409,5.417c1.674,1.439,3.946,1.063,5.417-0.409c0.115-0.115,0.23-0.23,0.345-0.345
			C468.168,525.861,467.782,523.192,466.292,521.911z"/>
		<path fill="#FFFFFF" d="M460.391,541.366c-2.197,0.265-3.541,1.962-3.541,4.12v0.345c0,2.014,2.165,3.777,4.12,3.541
			c2.197-0.265,3.541-1.962,3.541-4.12v-0.345C464.51,542.893,462.345,541.13,460.391,541.366z"/>
	</g>
</g>
</svg>
