<?xml version="1.0" encoding="utf-8"?>
<!-- Generator: Adobe Illustrator 17.0.0, SVG Export Plug-In . SVG Version: 6.00 Build 0)  -->
<!DOCTYPE svg PUBLIC "-//W3C//DTD SVG 1.1//EN" "http://www.w3.org/Graphics/SVG/1.1/DTD/svg11.dtd">
<svg version="1.1" id="Capa_1" xmlns="http://www.w3.org/2000/svg" xmlns:xlink="http://www.w3.org/1999/xlink" x="0px" y="0px"
	 width="260px" height="259.998px" viewBox="0 0.001 260 259.998" enable-background="new 0 0.001 260 259.998"
	 xml:space="preserve">
<linearGradient id="SVGID_1_" gradientUnits="userSpaceOnUse" x1="-2.812652e-005" y1="129.9998" x2="259.9998" y2="129.9998">
	<stop  offset="0" style="stop-color:#712730"/>
	<stop  offset="1" style="stop-color:#DC6C38"/>
</linearGradient>
<path fill="url(#SVGID_1_)" d="M259.911,255.829c-0.351-1.438-1.319-2.6-2.595-3.115c-27-11.727-54.419-44.115-54.837-44.436l0,0
	c-3.391-3.573-6.447-7.1-9.293-10.628c2.009-1.466,3.977-3.023,5.902-4.581c10.051-8.442,18.401-19.062,24.53-31.197
	c-0.023-0.152-0.023-0.306,0-0.458c2.385,1.035,4.928,1.563,7.493,1.558c11.327-0.169,20.384-10.355,20.23-22.751
	c-0.143-11.503-8.211-21.025-18.681-22.051c-0.555-12.613-3.718-24.925-9.251-36.006c-5.66-11.201-13.218-21.121-22.27-29.227
	c5.149-7.1,8.958-12.185,9.753-13.147l0.251-0.275C238.981,4.608,237.851,2.867,236.26,0.989c-0.544-0.733-1.758-1.695-4.186,0
	c-0.686,0.427-1.285,1.004-1.758,1.695c-11.269,15.749-23.657,30.499-37.047,44.115c-8.593-6.331-17.948-11.326-27.795-14.842
	l-2.679-0.916c0.168-1.321,0.252-2.652,0.251-3.985c0.243-14.674-10.431-26.785-23.84-27.051
	c-13.409-0.266-24.476,11.415-24.719,26.089c-8.034,0.896-15.969,2.644-23.693,5.222c-7.575,2.544-14.885,5.952-21.809,10.17
	C49.059,25.269,33.32,11.663,30.808,9.418c-0.588-0.495-1.278-0.825-2.009-0.962c-1.967-0.367-3.223,0-3.809,1.603
	c-1.005,2.428,1.256,4.581,4.186,6.826l1.047,0.962l30.433,28.998c-1.172,0.87-2.302,1.787-3.433,2.703
	C46.94,58.011,38.385,68.73,32.106,81.019l-0.209,0.412c-1.998-0.553-4.051-0.83-6.112-0.825
	C12.341,79.759,0.815,90.998,0.041,105.71s9.496,27.325,22.94,28.173l0,0c1.381,10.059,4.385,19.77,8.874,28.677
	c3.847,7.618,8.621,14.63,14.191,20.843c-15.447,13.743-19.13,18.919-19.842,20.156C4.939,227.931,6.069,230.817,6.822,232.741
	c0.483,1.213,1.597,1.977,2.805,1.924c1.458,0.002,2.822-0.787,3.642-2.107c10.642-16.58,23.677-31.154,38.595-43.153
	c1.674,1.603,3.391,3.161,5.149,4.581c10.218,8.372,21.692,14.728,33.907,18.782c6.631,2.178,13.425,3.711,20.302,4.581
	c2.453,10.386,12.135,16.629,21.626,13.945c6.368-1.801,11.304-7.309,12.825-14.311c6.75-1.059,13.404-2.76,19.884-5.085
	c7.06-2.508,13.874-5.777,20.344-9.758c32.023,37.289,46.047,45.81,46.758,46.176c15.572,9.529,21.433,11.681,24.07,11.681
	c0.781,0.03,1.544-0.265,2.135-0.825C259.785,258.382,260.195,257.072,259.911,255.829z M150.655,12.075
	c3.699-0.025,6.716,3.236,6.739,7.284s-2.957,7.35-6.656,7.375s-6.716-3.236-6.739-7.284c0-0.03,0-0.061,0-0.091
	C144.022,15.347,146.989,12.1,150.655,12.075z M92.678,36.858c7.282-2.615,14.784-4.426,22.395-5.406
	c2.372,14.443,14.993,24.047,28.19,21.452c8.647-1.7,15.78-8.38,18.652-17.466l0,0l2.428,0.779
	c9.248,3.079,18.065,7.534,26.205,13.239c-12.181,12.369-21.433,20.569-21.642,20.752c-20.93,19.469-41.861,14.155-49.814,8.658
	l-2.302-1.558c-3.516-2.382-11.679-7.971-12.558-8.566C94.185,61.137,83.93,53.075,74.427,45.424
	C80.249,41.942,86.36,39.074,92.678,36.858L92.678,36.858z M51.153,178.869c-5.311-5.936-9.835-12.66-13.437-19.973
	c-3.987-7.935-6.678-16.569-7.953-25.516c13.231-2.531,22.082-16.321,19.769-30.801c-1.233-7.716-5.509-14.447-11.69-18.398
	c5.789-11.36,13.638-21.306,23.065-29.227c1.423-1.191,2.846-2.336,4.186-3.482l9.209,9.162
	c9.604,10.199,17.886,21.79,24.614,34.449c2.872,5.808,3.875,12.504,2.846,19.011c-4.395,26.661-29.554,47.597-29.763,47.78
	c-8.288,6.688-15.237,12.369-20.847,17.179L51.153,178.869z M164.176,207.362c-5.933,2.062-12.008,3.594-18.167,4.581
	c-1.208-10.62-10.055-18.157-19.76-16.834c-7.982,1.088-14.291,7.927-15.361,16.651c-6.145-0.986-12.207-2.518-18.126-4.581
	c-11.482-4.044-22.233-10.245-31.772-18.324l-3.809-3.344c6.154-4.875,12.571-9.342,19.214-13.376
	c52.158-28.585,89.414,6.963,93.516,11.086l0.586,0.687c4.521,5.589,8.707,10.72,12.558,15.392
	c-5.986,3.388-12.251,6.149-18.712,8.246L164.176,207.362z M162.376,129.485c0,0,0-0.275,0-0.504
	c-0.675-5.46-0.304-11.014,1.088-16.308c2.805-10.582,22.186-38.755,35.33-56.987c8.763,7.636,16.085,17.065,21.558,27.761
	c5.305,10.522,8.368,22.22,8.958,34.22c-11.267,1.013-19.651,11.83-18.725,24.16c0.541,7.204,4.225,13.679,9.892,17.39v0.321
	c-5.953,11.624-14.067,21.752-23.819,29.731c-1.967,1.649-4.186,3.207-6.112,4.581c-25.786-33.12-27.921-62.622-28.005-63.996
	L162.376,129.485z"/>
</svg>
